<svg width="1440" height="624" viewBox="0 0 1440 624" fill="none" xmlns="http://www.w3.org/2000/svg">
<rect x="-6.10352e-05" width="1440" height="768" fill="#0076FF"/>
<path d="M-231.461 -494.892C-58.6529 -458.161 193.739 -195.91 251.802 -44.2102C309.865 107.489 137.071 38.3372 22.3259 153.305C-92.4193 268.273 -34.3703 452.393 -207.179 415.662C-379.987 378.93 -590.868 319.71 -648.931 168.011C-706.995 16.3114 -554.177 -76.1686 -439.432 -191.137C-324.687 -306.105 -404.27 -531.624 -231.461 -494.892Z" fill="#1D85FF"/>
<path fill-rule="evenodd" clip-rule="evenodd" d="M1440 624H0.000732422V541C240.001 566.295 480.001 578.943 720.001 578.943C960.001 578.943 1200 566.295 1440 541V624Z" fill="white"/>
</svg>
